<svg xmlns="http://www.w3.org/2000/svg" viewBox="0 0 1600 900">
  <defs>
    <linearGradient id="g" x1="0" x2="1" y1="0" y2="1">
      <stop stop-color="#ff8b5b"/>
      <stop offset="1" stop-color="#ffd76a"/>
    </linearGradient>
  </defs>
  <rect width="1600" height="900" fill="url(#g)"/>
  <circle cx="1260" cy="180" r="108" fill="#fff2b8"/>
  <path d="M0 650h1600v250H0z" fill="#21564b"/>
  <path d="M180 320h360v330H180z" fill="#fff7ef"/>
  <path d="M250 250h220v70H250z" fill="#174f47"/>
  <path d="M280 390h70v70H280zm95 0h70v70h-70zm-95 95h70v70H280zm95 0h70v70h-70z" fill="#f7b267"/>
  <path d="M900 420l180-130 180 130v230H900z" fill="#fff3dd"/>
  <path d="M980 520h70v130h-70zm120 0h70v130h-70z" fill="#3f7cac"/>
  <text x="120" y="110" fill="#10302b" font-size="72" font-family="Arial, sans-serif" font-weight="700">Campus Open Day</text>
</svg>
