<svg xmlns="http://www.w3.org/2000/svg" viewBox="0 0 1600 900">
  <defs>
    <linearGradient id="g" x1="0" x2="1" y1="0" y2="1">
      <stop stop-color="#4c7cf0"/>
      <stop offset="1" stop-color="#d2e1ff"/>
    </linearGradient>
  </defs>
  <rect width="1600" height="900" fill="url(#g)"/>
  <path d="M0 680h1600v220H0z" fill="#10233f"/>
  <path d="M250 240h250v440H250z" fill="#f6f7fb"/>
  <path d="M340 180h70v80h-70z" fill="#ffd166"/>
  <path d="M670 310h650v370H670z" fill="#eef4ff"/>
  <path d="M740 390h120v120H740zm160 0h120v120H900zm160 0h120v120h-120zm-320 160h120v120H740zm160 0h120v120H900zm160 0h120v120h-120z" fill="#8ecae6"/>
  <path d="M1080 250l80-120 80 120z" fill="#ff7f50"/>
  <text x="120" y="110" fill="#f7fbff" font-size="72" font-family="Arial, sans-serif" font-weight="700">Student Debate</text>
</svg>
